HIERARCHY
ROOT Root
{
  OFFSET 0.0 0.0 0.0
  CHANNELS 6 Xposition Yposition Zposition Zrotation Yrotation Xrotation
  JOINT Hips
  {
    OFFSET 0.0 100.0 0.0
    CHANNELS 6 Xposition Yposition Zposition Zrotation Yrotation Xrotation
    JOINT Spine1
    {
      OFFSET 5.003913 -0.037094 -0.013727
      CHANNELS 3 Zrotation Yrotation Xrotation
      JOINT Spine2
      {
        OFFSET 7.125363 -1e-06 0.0
        CHANNELS 3 Zrotation Yrotation Xrotation
        JOINT Chest
        {
          OFFSET 7.594027 1e-06 0.0
          CHANNELS 3 Zrotation Yrotation Xrotation
          JOINT Neck1
          {
            OFFSET 26.313086 -0.460272 -0.181672
            CHANNELS 3 Zrotation Yrotation Xrotation
            JOINT Neck2
            {
              OFFSET 8.045911 0.0 0.0
              CHANNELS 3 Zrotation Yrotation Xrotation
              JOINT Head
              {
                OFFSET 6.432774 0.0 0.0
                CHANNELS 3 Zrotation Yrotation Xrotation
                JOINT HeadEnd
                {
                  OFFSET 16.169773 0.06451 0.00362
                  CHANNELS 3 Zrotation Yrotation Xrotation
                }
                JOINT Jaw
                {
                  OFFSET 0.108741 3.12938 0.002639
                  CHANNELS 3 Zrotation Yrotation Xrotation
                }
                JOINT LeftEye
                {
                  OFFSET 4.45173 8.166359 3.206392
                  CHANNELS 3 Zrotation Yrotation Xrotation
                }
                JOINT RightEye
                {
                  OFFSET 4.436895 8.135758 -3.222429
                  CHANNELS 3 Zrotation Yrotation Xrotation
                }
              }
            }
          }
          JOINT LeftShoulder
          {
            OFFSET 23.218927 5.195579 1.621656
            CHANNELS 3 Zrotation Yrotation Xrotation
            JOINT LeftArm
            {
              OFFSET 15.902118 2e-06 -2e-06
              CHANNELS 3 Zrotation Yrotation Xrotation
              JOINT LeftForeArm
              {
                OFFSET 28.739307 0.0 -1e-06
                CHANNELS 3 Zrotation Yrotation Xrotation
                JOINT LeftHand
                {
                  OFFSET 27.093981 -4e-06 0.0
                  CHANNELS 3 Zrotation Yrotation Xrotation
                  JOINT LeftHandThumb1
                  {
                    OFFSET 2.276781 3.380274 0.83384
                    CHANNELS 3 Zrotation Yrotation Xrotation
                    JOINT LeftHandThumb2
                    {
                      OFFSET 4.705309 -1e-06 -1e-06
                      CHANNELS 3 Zrotation Yrotation Xrotation
                      JOINT LeftHandThumb3
                      {
                        OFFSET 2.798515 0.0 3e-06
                        CHANNELS 3 Zrotation Yrotation Xrotation
                        JOINT LeftHandThumbEnd
                        {
                          OFFSET 3.180793 4e-06 -4e-06
                          CHANNELS 3 Zrotation Yrotation Xrotation
                        }
                      }
                    }
                  }
                  JOINT LeftHandIndex1
                  {
                    OFFSET 3.247786 2.352677 0.137192
                    CHANNELS 3 Zrotation Yrotation Xrotation
                    JOINT LeftHandIndex2
                    {
                      OFFSET 6.367095 1e-06 0.0
                      CHANNELS 3 Zrotation Yrotation Xrotation
                      JOINT LeftHandIndex3
                      {
                        OFFSET 3.662364 0.0 0.0
                        CHANNELS 3 Zrotation Yrotation Xrotation
                        JOINT LeftHandIndex4
                        {
                          OFFSET 2.329242 4e-06 -4e-06
                          CHANNELS 3 Zrotation Yrotation Xrotation
                          JOINT LeftHandIndexEnd
                          {
                            OFFSET 2.767823 1e-06 0.0
                            CHANNELS 3 Zrotation Yrotation Xrotation
                          }
                        }
                      }
                    }
                  }
                  JOINT LeftHandMiddle1
                  {
                    OFFSET 3.163612 0.945023 -0.406112
                    CHANNELS 3 Zrotation Yrotation Xrotation
                    JOINT LeftHandMiddle2
                    {
                      OFFSET 6.276789 3e-06 0.0
                      CHANNELS 3 Zrotation Yrotation Xrotation
                      JOINT LeftHandMiddle3
                      {
                        OFFSET 4.35652 -1e-06 4e-06
                        CHANNELS 3 Zrotation Yrotation Xrotation
                        JOINT LeftHandMiddle4
                        {
                          OFFSET 2.996877 0.0 8e-06
                          CHANNELS 3 Zrotation Yrotation Xrotation
                          JOINT LeftHandMiddleEnd
                          {
                            OFFSET 2.323256 3e-06 -4e-06
                            CHANNELS 3 Zrotation Yrotation Xrotation
                          }
                        }
                      }
                    }
                  }
                  JOINT LeftHandRing1
                  {
                    OFFSET 2.882606 -0.309162 0.107445
                    CHANNELS 3 Zrotation Yrotation Xrotation
                    JOINT LeftHandRing2
                    {
                      OFFSET 6.033198 0.0 4e-06
                      CHANNELS 3 Zrotation Yrotation Xrotation
                      JOINT LeftHandRing3
                      {
                        OFFSET 4.350578 3e-06 0.0
                        CHANNELS 3 Zrotation Yrotation Xrotation
                        JOINT LeftHandRing4
                        {
                          OFFSET 2.651321 2e-06 -7e-06
                          CHANNELS 3 Zrotation Yrotation Xrotation
                          JOINT LeftHandRingEnd
                          {
                            OFFSET 1.937663 1e-06 -4e-06
                            CHANNELS 3 Zrotation Yrotation Xrotation
                          }
                        }
                      }
                    }
                  }
                  JOINT LeftHandPinky1
                  {
                    OFFSET 2.865315 -1.525436 0.575687
                    CHANNELS 3 Zrotation Yrotation Xrotation
                    JOINT LeftHandPinky2
                    {
                      OFFSET 5.54936 1e-06 -8e-06
                      CHANNELS 3 Zrotation Yrotation Xrotation
                      JOINT LeftHandPinky3
                      {
                        OFFSET 3.070974 0.0 -4e-06
                        CHANNELS 3 Zrotation Yrotation Xrotation
                        JOINT LeftHandPinky4
                        {
                          OFFSET 1.549672 1e-06 0.0
                          CHANNELS 3 Zrotation Yrotation Xrotation
                          JOINT LeftHandPinkyEnd
                          {
                            OFFSET 1.952123 0.0 0.0
                            CHANNELS 3 Zrotation Yrotation Xrotation
                          }
                        }
                      }
                    }
                  }
                }
              }
            }
          }
          JOINT RightShoulder
          {
            OFFSET 23.161716 5.296122 -1.380114
            CHANNELS 3 Zrotation Yrotation Xrotation
            JOINT RightArm
            {
              OFFSET -16.027195 -2e-06 1.1e-05
              CHANNELS 3 Zrotation Yrotation Xrotation
              JOINT RightForeArm
              {
                OFFSET -28.736639 4e-06 2e-06
                CHANNELS 3 Zrotation Yrotation Xrotation
                JOINT RightHand
                {
                  OFFSET -27.133619 6e-06 0.0
                  CHANNELS 3 Zrotation Yrotation Xrotation
                  JOINT RightHandThumb1
                  {
                    OFFSET -2.274328 -3.351035 -0.83067
                    CHANNELS 3 Zrotation Yrotation Xrotation
                    JOINT RightHandThumb2
                    {
                      OFFSET -4.703594 -3e-06 2e-06
                      CHANNELS 3 Zrotation Yrotation Xrotation
                      JOINT RightHandThumb3
                      {
                        OFFSET -2.794935 -4e-06 -3e-06
                        CHANNELS 3 Zrotation Yrotation Xrotation
                        JOINT RightHandThumbEnd
                        {
                          OFFSET -3.183852 4e-06 1e-06
                          CHANNELS 3 Zrotation Yrotation Xrotation
                        }
                      }
                    }
                  }
                  JOINT RightHandIndex1
                  {
                    OFFSET -3.253496 -2.33755 -0.127667
                    CHANNELS 3 Zrotation Yrotation Xrotation
                    JOINT RightHandIndex2
                    {
                      OFFSET -6.344434 0.0 0.0
                      CHANNELS 3 Zrotation Yrotation Xrotation
                      JOINT RightHandIndex3
                      {
                        OFFSET -3.654871 0.0 -8e-06
                        CHANNELS 3 Zrotation Yrotation Xrotation
                        JOINT RightHandIndex4
                        {
                          OFFSET -2.327586 -1e-06 0.0
                          CHANNELS 3 Zrotation Yrotation Xrotation
                          JOINT RightHandIndexEnd
                          {
                            OFFSET -2.770001 3e-06 8e-06
                            CHANNELS 3 Zrotation Yrotation Xrotation
                          }
                        }
                      }
                    }
                  }
                  JOINT RightHandMiddle1
                  {
                    OFFSET -3.168223 -0.944764 0.411762
                    CHANNELS 3 Zrotation Yrotation Xrotation
                    JOINT RightHandMiddle2
                    {
                      OFFSET -6.266691 -1e-06 -4e-06
                      CHANNELS 3 Zrotation Yrotation Xrotation
                      JOINT RightHandMiddle3
                      {
                        OFFSET -4.348901 0.0 0.0
                        CHANNELS 3 Zrotation Yrotation Xrotation
                        JOINT RightHandMiddle4
                        {
                          OFFSET -3.00024 2e-06 -4e-06
                          CHANNELS 3 Zrotation Yrotation Xrotation
                          JOINT RightHandMiddleEnd
                          {
                            OFFSET -2.321477 -4e-06 -4e-06
                            CHANNELS 3 Zrotation Yrotation Xrotation
                          }
                        }
                      }
                    }
                  }
                  JOINT RightHandRing1
                  {
                    OFFSET -2.885654 0.293261 -0.119232
                    CHANNELS 3 Zrotation Yrotation Xrotation
                    JOINT RightHandRing2
                    {
                      OFFSET -6.032835 -1e-06 -4e-06
                      CHANNELS 3 Zrotation Yrotation Xrotation
                      JOINT RightHandRing3
                      {
                        OFFSET -4.33881 0.0 -4e-06
                        CHANNELS 3 Zrotation Yrotation Xrotation
                        JOINT RightHandRing4
                        {
                          OFFSET -2.654903 -4e-06 -4e-06
                          CHANNELS 3 Zrotation Yrotation Xrotation
                          JOINT RightHandRingEnd
                          {
                            OFFSET -1.935122 0.0 4e-06
                            CHANNELS 3 Zrotation Yrotation Xrotation
                          }
                        }
                      }
                    }
                  }
                  JOINT RightHandPinky1
                  {
                    OFFSET -2.866241 1.503904 -0.60527
                    CHANNELS 3 Zrotation Yrotation Xrotation
                    JOINT RightHandPinky2
                    {
                      OFFSET -5.553177 -2e-06 0.0
                      CHANNELS 3 Zrotation Yrotation Xrotation
                      JOINT RightHandPinky3
                      {
                        OFFSET -3.062664 -1e-06 -4e-06
                        CHANNELS 3 Zrotation Yrotation Xrotation
                        JOINT RightHandPinky4
                        {
                          OFFSET -1.546529 2e-06 4e-06
                          CHANNELS 3 Zrotation Yrotation Xrotation
                          JOINT RightHandPinkyEnd
                          {
                            OFFSET -1.952341 0.0 -4e-06
                            CHANNELS 3 Zrotation Yrotation Xrotation
                          }
                        }
                      }
                    }
                  }
                }
              }
            }
          }
        }
      }
    }
    JOINT LeftLeg
    {
      OFFSET -8.443107 2.567604 10.043214
      CHANNELS 3 Zrotation Yrotation Xrotation
      JOINT LeftShin
      {
        OFFSET 43.229198 1e-06 -1e-06
        CHANNELS 3 Zrotation Yrotation Xrotation
        JOINT LeftFoot
        {
          OFFSET 42.298611 1e-06 1e-06
          CHANNELS 3 Zrotation Yrotation Xrotation
          JOINT LeftToeBase
          {
            OFFSET 14.165858 1e-06 0.0
            CHANNELS 3 Zrotation Yrotation Xrotation
            JOINT LeftToeEnd
            {
              OFFSET 6.7141 -0.234461 0.0
              CHANNELS 3 Zrotation Yrotation Xrotation
            }
          }
        }
      }
    }
    JOINT RightLeg
    {
      OFFSET -8.303923 2.592729 -10.047278
      CHANNELS 3 Zrotation Yrotation Xrotation
      JOINT RightShin
      {
        OFFSET -43.369682 0.0 1e-06
        CHANNELS 3 Zrotation Yrotation Xrotation
        JOINT RightFoot
        {
          OFFSET -42.260784 4e-06 2e-06
          CHANNELS 3 Zrotation Yrotation Xrotation
          JOINT RightToeBase
          {
            OFFSET -14.222245 -2e-06 -1e-06
            CHANNELS 3 Zrotation Yrotation Xrotation
            JOINT RightToeEnd
            {
              OFFSET -6.660062 0.232574 -2e-06
              CHANNELS 3 Zrotation Yrotation Xrotation
            }
          }
        }
      }
    }
  }
}
MOTION
Frames: 4
Frame Time: 0.03333333333333333
0.0 0.0 0.0 0.0 -0.0 0.0 -1.921857 95.97142 -3.86873 92.095879 3.360445 89.498268 1.099007 0.144541 0.008824 -11.279651 -0.387689 0.384438 25.249933 0.046483 -1.9935 49.895821 -4.93683 1.935647 -2.622588 -0.704132 -1.340361 -30.460821 -2.072046 -1.283307 6e-06 -0.0 -0.0 0.015938 0.024524 0.002198 0.185354 0.018127 0.010682 0.127292 0.027287 0.003736 -112.588486 -83.748093 134.479172 54.101265 -48.456734 11.355852 33.791626 0.193271 0.028119 -3.677119 -0.375436 -7.453802 17.636625 -26.322737 52.411201 -19.466661 -14.395598 29.410395 -0.0 -8.774822 -2e-06 16.628658 -18.238062 6.138045 -0.609777 -1.795654 -3.889328 -4.80709 -11.046813 -2.937847 3e-06 -20.976025 -0.0 -5.019974 -25.033566 -4.031879 6e-06 -1e-06 1e-06 -10.634533 -5.686972 -3.565589 10.573272 -17.922951 -3.113899 1e-06 -13.821211 1e-06 -0.50178 -31.181511 -4.027014 -11.836729 -60.435688 7.869402 -13.982712 -7.150198 -2.875044 13.772728 -8.401493 -3.21824 0.347731 -34.211555 0.771658 -0.96303 -17.733374 2.62102 -0.0 -1e-06 0.0 -17.346418 -20.095221 -4.201782 21.757557 -1.638373 3.866427 0.0 -6.338824 1e-06 -1.697589 -22.591749 -6.194002 0.0 -5e-06 1e-06 6.483805 -84.459099 -161.029816 41.245396 -50.658165 6.699371 39.906006 0.397339 0.186928 -8.793682 1.503642 -9.116982 22.182121 -20.375898 49.933323 -16.701815 -16.743528 28.476532 -3e-06 -12.690604 -2e-06 16.242561 -17.755285 2.642485 -0.105919 -1.513856 -4.275886 -5.039041 -5.612872 -2.953555 4e-06 -11.020525 -1e-06 -6.111298 -15.895334 -3.840469 1e-06 0.0 1e-06 -10.283373 -5.680289 -4.341841 11.028296 -11.302407 -2.372634 -1.38427 -14.238585 -6.32012 -0.625439 -26.924198 -3.827599 -4.241463 -49.808006 -3.915486 -13.708526 -7.363476 -3.72094 18.141153 -14.052742 -3.242676 8e-06 -18.787271 -3e-06 -0.429713 -8.456045 2.555503 2e-06 -1e-06 -0.0 -15.923536 -20.094484 -5.473584 30.419218 -7.190827 1.735925 2e-06 -8.162929 -1e-06 -1.861901 -22.861473 -6.167943 0.0 -1e-06 0.0 157.199463 -1.294341 -9.424233 27.136019 0.006073 -0.041041 -69.891273 3.400851 -3.076841 -7.402924 1.422501 2.073452 -1.0 0.0 0.0 2.362354 -4.275309 -13.579144 33.222401 0.09227 -0.046307 -95.954102 2.594222 -5.476787 -8.578956 0.798205 1.665768 -1.000002 1e-06 -0.0 
0.0 0.0 0.0 0.0 -0.0 0.0 -1.2695 96.019905 -2.373997 92.16909 3.335421 88.824921 1.102836 -0.187695 0.027327 -11.30484 -0.404708 0.544917 25.281553 -0.151228 -1.991312 49.907856 -5.141166 1.851567 -2.576188 -0.703214 -1.287717 -30.58136 -1.905642 -1.349898 5e-06 0.0 -0.0 0.011724 -0.006043 0.05044 0.179442 -0.013058 0.056553 0.133622 -0.003903 0.051856 -111.830627 -83.630402 133.888489 54.239937 -48.307938 11.114477 33.39854 0.185468 -0.013453 -3.624121 -0.153085 -7.25949 17.636627 -26.322737 52.411205 -19.466656 -14.395598 29.410389 1e-06 -8.774822 -2e-06 16.632969 -18.195278 6.094483 -0.609776 -1.795654 -3.889324 -4.80709 -11.04681 -2.937849 2e-06 -20.976019 1e-06 -5.019973 -25.033556 -4.031882 7e-06 -1e-06 -2e-06 -10.634535 -5.686972 -3.565587 10.573274 -17.922951 -3.113901 0.0 -13.821209 1e-06 -0.501781 -31.181505 -4.027014 -11.693319 -60.439743 7.755222 -13.982716 -7.150198 -2.875039 13.77273 -8.401491 -3.218241 0.34773 -34.211555 0.771657 -0.963032 -17.733372 2.621023 -1e-06 2e-06 0.0 -17.346422 -20.095219 -4.20178 21.757557 -1.638373 3.866427 -0.0 -6.338822 1e-06 -1.697592 -22.591743 -6.194003 1e-06 -3e-06 -2e-06 9.686037 -84.570107 -164.05777 41.592758 -51.167084 6.275967 39.722343 0.327717 0.172024 -8.627404 1.892899 -9.116065 22.182117 -20.375891 49.933319 -16.701807 -16.743525 28.476522 -3e-06 -12.6906 -1e-06 16.155159 -17.702917 2.655459 -0.105919 -1.513856 -4.27588 -5.03904 -5.61287 -2.953561 4e-06 -11.02052 -2e-06 -6.111296 -15.89533 -3.840469 1e-06 2e-06 -2e-06 -10.283369 -5.680287 -4.341837 11.028292 -11.302403 -2.372637 -1.384269 -14.238577 -6.32012 -0.625438 -26.924187 -3.827602 -4.234954 -49.825085 -3.872544 -13.708524 -7.363475 -3.720944 18.141148 -14.052739 -3.242673 8e-06 -18.787268 -1e-06 -0.42971 -8.456044 2.555505 1e-06 -0.0 -0.0 -15.923532 -20.094481 -5.473583 30.419207 -7.190824 1.735927 3e-06 -8.162925 -1e-06 -1.861899 -22.861467 -6.167943 0.0 -3e-06 -1e-06 157.47049 -1.171525 -9.964233 28.748714 0.022367 -0.050677 -71.812912 2.986319 -2.465353 -7.261057 1.434767 2.074768 -0.999999 0.0 0.0 2.840969 -5.156391 -13.544058 34.306259 0.079081 -0.029528 -94.559074 3.41918 -6.083594 -9.598951 0.809991 1.658273 -1.000002 0.0 0.0 
0.0 0.0 0.0 0.0 -0.0 0.0 -0.604247 96.131157 -0.822816 92.267494 3.271035 88.187996 1.018198 -0.554057 0.046481 -11.367137 -0.429147 0.65502 25.342848 -0.335316 -1.944561 50.049675 -5.412823 1.810704 -2.563854 -0.710335 -1.286356 -30.56296 -1.794904 -1.383735 5e-06 -0.0 -0.0 0.009072 -0.024437 0.087227 0.150081 -0.037853 0.090097 0.117396 -0.016607 0.089426 -110.897842 -83.526367 133.087692 54.347939 -48.313507 11.078327 33.21413 0.296821 -0.002337 -3.542303 0.043978 -7.399572 17.636641 -26.322733 52.411194 -19.466665 -14.395602 29.410393 -1e-06 -8.774824 -4e-06 16.624027 -18.22703 6.09998 -0.609775 -1.795653 -3.889329 -4.80709 -11.046813 -2.937849 7e-06 -20.976021 -1e-06 -5.01997 -25.033562 -4.03188 7e-06 -1e-06 0.0 -10.634537 -5.686969 -3.565585 10.573279 -17.922953 -3.113903 4e-06 -13.821209 0.0 -0.501776 -31.181505 -4.027014 -11.701283 -60.412697 7.719389 -13.982718 -7.150198 -2.875045 13.772732 -8.401494 -3.218238 0.347737 -34.211555 0.771653 -0.963033 -17.733372 2.621022 -1e-06 0.0 0.0 -17.346424 -20.095217 -4.201782 21.757566 -1.638377 3.866428 1e-06 -6.338821 0.0 -1.69759 -22.591742 -6.194003 1e-06 -6e-06 -2e-06 12.188639 -84.71788 -166.544846 41.756695 -51.913094 5.947142 39.606026 0.27336 0.137914 -8.506804 2.409691 -9.2153 22.182119 -20.375895 49.933319 -16.701818 -16.74353 28.47653 -3e-06 -12.690602 -3e-06 16.096348 -17.667746 2.680306 -0.10592 -1.513857 -4.275886 -5.039041 -5.612871 -2.953554 5e-06 -11.020525 -1e-06 -6.111297 -15.895338 -3.840471 -0.0 2e-06 1e-06 -10.283371 -5.680288 -4.341838 11.028296 -11.302407 -2.372636 -1.384269 -14.238581 -6.32012 -0.625438 -26.924196 -3.827602 -4.180866 -49.743183 -3.925206 -13.708526 -7.363477 -3.720938 18.141153 -14.052741 -3.242677 8e-06 -18.787273 1e-06 -0.429709 -8.456048 2.555502 -0.0 0.0 2e-06 -15.923536 -20.094484 -5.473585 30.41921 -7.190827 1.735928 2e-06 -8.162929 -3e-06 -1.861899 -22.861473 -6.167946 -0.0 -2e-06 1e-06 158.0177 -0.936032 -10.60708 29.810946 0.022426 -0.038021 -73.531708 2.52669 -1.788823 -7.077297 1.432996 2.080006 -0.999999 0.0 0.0 3.304916 -6.127745 -13.596456 35.440735 0.071016 0.011077 -92.553307 4.489897 -6.763701 -10.878565 0.854144 1.65452 -1.000002 -0.0 -0.0 
0.0 0.0 0.0 0.0 -0.0 0.0 0.008008 96.349556 0.755021 92.24144 3.165254 87.562737 0.910881 -0.83689 0.049939 -11.442519 -0.427244 0.755721 25.34086 -0.468078 -1.8564 50.26757 -5.718142 1.779893 -2.56511 -0.739215 -1.240998 -30.600317 -1.712569 -1.388536 6e-06 0.0 -0.0 0.010279 -0.030582 0.106052 0.131962 -0.056014 0.10697 0.104312 -0.010349 0.108525 -109.765427 -83.41983 132.033081 54.437901 -48.472507 11.195681 33.194733 0.400715 0.021306 -3.428752 0.238522 -7.364225 17.636631 -26.322741 52.411205 -19.466661 -14.395598 29.410395 -0.0 -8.774822 -3e-06 16.565086 -18.259644 6.114944 -0.609777 -1.795654 -3.889327 -4.807089 -11.04681 -2.93785 4e-06 -20.976019 -0.0 -5.019972 -25.033558 -4.031879 6e-06 -0.0 -2e-06 -10.634533 -5.686971 -3.565588 10.573272 -17.922953 -3.113899 3e-06 -13.821206 -1e-06 -0.50178 -31.181505 -4.027013 -11.667842 -60.318226 7.625221 -13.982714 -7.150198 -2.875042 13.772727 -8.401491 -3.21824 0.347734 -34.211544 0.771656 -0.963029 -17.73337 2.621019 -0.0 0.0 -0.0 -17.34642 -20.095219 -4.201779 21.757559 -1.638374 3.866428 0.0 -6.338825 -0.0 -1.69759 -22.591745 -6.194003 -0.0 -4e-06 -1e-06 13.883502 -84.950966 -168.34964 41.84618 -52.748459 5.886009 39.583828 0.278094 0.1224 -8.511361 2.746666 -9.352491 22.182114 -20.375896 49.933319 -16.701813 -16.743526 28.47653 -5e-06 -12.6906 -0.0 16.06575 -17.669279 2.705944 -0.105919 -1.513856 -4.275887 -5.03904 -5.61287 -2.953557 5e-06 -11.02052 -2e-06 -6.111296 -15.89533 -3.840467 1e-06 0.0 -0.0 -10.283367 -5.680287 -4.341843 11.028292 -11.302404 -2.372634 -1.384267 -14.23858 -6.320118 -0.625436 -26.924191 -3.827603 -4.161793 -49.671402 -3.967845 -13.708522 -7.363474 -3.720941 18.141146 -14.052739 -3.242674 7e-06 -18.78727 -0.0 -0.429711 -8.456043 2.555503 1e-06 -1e-06 -1e-06 -15.92353 -20.094482 -5.473586 30.41921 -7.190826 1.735928 2e-06 -8.162926 -3e-06 -1.861898 -22.861471 -6.167943 0.0 -3e-06 -0.0 158.847687 -0.768019 -11.275283 30.250662 0.022095 -0.002692 -74.950844 2.146882 -1.21475 -6.889693 1.407745 2.080722 -0.999998 -0.0 0.0 3.812713 -6.909463 -13.63449 36.421806 0.037586 0.065454 -89.636292 5.57864 -7.305645 -12.430858 0.900633 1.648417 -1.000002 0.0 -0.0 
